# xmcd
#
# Track frame offsets:
#	150
#	12253
#	25235
#	33050
#	46076
#	58154
#	74713
#	89980
#	102308
#	119495
#	136364
#	155504
#
# Disc length: 2325 seconds
#
# Revision: 0
# Processed by: cddbd v1.5.2PL0 Copyright (c) Steve Scherf et al.
# Submitted via: dBpowerAMP V4.0
#
DISCID=a809130c
DTITLE=High Ground - Songs To Lead You Home
DYEAR=2007
DGENRE=Bluegrass
TTITLE0=I'm Ready To Go
TTITLE1=You Go To Your Church
TTITLE2=Someday
TTITLE3=Don't Let It Rain
TTITLE4=The Soun Of Man (Never Dies)
TTITLE5=Beaulah Land
TTITLE6=Seven Sundays In A Row
TTITLE7=I'm Using My Bible As A Roadmap
TTITLE8=The Scars In His Hands
TTITLE9=Who Will Sing For Me
TTITLE10=Let It Go
TTITLE11='ll Fly Away
EXTD=
EXTT0=
EXTT1=
EXTT2=
EXTT3=
EXTT4=
EXTT5=
EXTT6=
EXTT7=
EXTT8=
EXTT9=
EXTT10=
EXTT11=
PLAYORDER=
